<?xml version="1.0" encoding="UTF-8" standalone="no"?>
<svg
   xmlns:dc="http://purl.org/dc/elements/1.1/"
   xmlns:cc="http://creativecommons.org/ns#"
   xmlns:rdf="http://www.w3.org/1999/02/22-rdf-syntax-ns#"
   xmlns:svg="http://www.w3.org/2000/svg"
   xmlns="http://www.w3.org/2000/svg"
   xmlns:sodipodi="http://sodipodi.sourceforge.net/DTD/sodipodi-0.dtd"
   xmlns:inkscape="http://www.inkscape.org/namespaces/inkscape"
   width="210mm"
   height="297mm"
   viewBox="0 0 210 297"
   version="1.1"
   id="svg8"
   inkscape:version="1.0.2 (e86c870879, 2021-01-15)"
   sodipodi:docname="Title.svg">
  <defs
     id="defs2" />
  <sodipodi:namedview
     id="base"
     pagecolor="#ffffff"
     bordercolor="#666666"
     borderopacity="1.0"
     inkscape:pageopacity="0.0"
     inkscape:pageshadow="2"
     inkscape:zoom="0.61277706"
     inkscape:cx="869.08939"
     inkscape:cy="518.9281"
     inkscape:document-units="mm"
     inkscape:current-layer="svg8"
     inkscape:document-rotation="0"
     showgrid="false"
     inkscape:snap-nodes="true"
     inkscape:snap-global="true"
     inkscape:snap-bbox="true"
     inkscape:window-width="1920"
     inkscape:window-height="1017"
     inkscape:window-x="0"
     inkscape:window-y="30"
     inkscape:window-maximized="1">
    <inkscape:grid
       type="xygrid"
       id="grid868" />
  </sodipodi:namedview>
  <metadata
     id="metadata5">
    <rdf:RDF>
      <cc:Work
         rdf:about="">
        <dc:format>image/svg+xml</dc:format>
        <dc:type
           rdf:resource="http://purl.org/dc/dcmitype/StillImage" />
        <dc:title></dc:title>
      </cc:Work>
    </rdf:RDF>
  </metadata>
  <g
     inkscape:groupmode="layer"
     id="layer2"
     inkscape:label="trace"
     style="display:inline;opacity:1" />
  <g
     id="g986"
     inkscape:export-xdpi="800"
     inkscape:export-ydpi="800"
     transform="matrix(0.23587925,0,0,0.23587925,-32.751784,106.76699)">
    <g
       id="g996"
       transform="matrix(1.4420956,0,0,1.4420956,-222.78567,-187.07752)">
      <g
         id="g954"
         transform="matrix(-1.4781481,0,0,1.4781481,1302.3524,-185.86231)">
        <g
           id="g932">
          <path
             style="display:inline;opacity:1;fill:#000000;fill-opacity:0.185949;stroke:#000000;stroke-width:0.264583;stroke-opacity:0.424756"
             d="m 708.32222,446.57107 c -9.42856,-24.13337 -43.78326,-29.01531 -43.78326,-29.01531 l -46.06467,-36.02353 2.02675,-13.86139 c 10.26488,-9.68766 -1.51307,-7.04487 -1.51307,-7.04487 -1.58338,-65.93657 -96.80825,-42.87364 -96.80825,-42.87364 -2.89025,-8.49431 -53.44776,-4.67878 -53.44776,-4.67878 0,0 142.97607,-131.81438 162.51026,-114.57879 19.5342,17.23559 11.15761,13.28983 30.93122,-6.63736 19.77362,-19.92719 -1.39474,-28.39962 -48.55922,-3.16954 -47.16449,25.23009 -145.17243,106.80246 -145.17243,106.80246 0,0 -5.01725,-7.63369 -4.41555,-15.46961 0,0 -50.92916,18.88465 -76.5792,3.50547 0,0 -4.14569,-3.03196 -13.24887,5.41455 0,0 -36.85144,2.83689 -43.24043,-1.42244 -6.38899,-4.25933 -28.00238,6.87994 -26.77327,55.80401 0,0 -7.021,28.48646 -0.0256,87.5097 l -2.31297,15.73907 h 406.47632"
             id="path886"
             sodipodi:nodetypes="cccccccsssccccscccc" />
          <path
             style="fill:#000000;fill-opacity:0.185949;stroke:#000000;stroke-width:0.264583;stroke-opacity:0.424756"
             d="m 693.57504,446.68875 c 0,0 -14.09551,-31.18906 -50.59124,-30.54229 l -79.19966,-46.32083 -1.44727,-8.4373 c 0,0 2.73871,-3.4092 -1.60339,-4.33304 0,0 -18.67874,-36.68885 -38.55376,-39.30296 0,0 -41.31799,12.44951 -53.8739,30.35376 v -32.78206 c 0,0 -41.53209,10.58031 -51.32707,27.30474 l -4.40301,13.61529 c 0,0 0.0284,-13.52188 -2.17565,-16.7073 -2.2041,-3.18543 -6.68704,-17.55361 -6.68704,-17.55361 0,0 2.13819,-15.21501 0.67831,-17.17888 -1.45988,-1.96387 2.22844,-2.89168 2.22844,-2.89168 0,0 4.56157,1.54651 4.31218,-2.40841 0,0 83.44693,-84.32562 95.71401,-93.32067 12.26708,-8.99505 21.60893,-14.868 42.90479,-1.4028 21.29586,13.4652 30.54532,-14.05099 30.54532,-14.05099 0,0 11.49866,-23.45552 -23.52508,-18.56763 -35.02373,4.8879 -50.73945,17.69741 -86.75111,51.51092 -36.01165,33.81351 -68.70533,59.37293 -71.25885,69.82304 0,0 0.49445,-11.16772 -13.35491,1.25303 -13.84936,12.42075 -44.20293,76.38641 -44.24235,93.61482 -0.0394,17.22841 4.08399,9.94556 -6.55576,19.15252 -10.63975,9.20696 -3.85519,16.9273 -11.78112,27.67933 -7.92594,10.75204 -5.07463,11.49367 -5.07463,11.49367 z"
             id="path925" />
        </g>
        <path
           style="fill:#000000;fill-opacity:0.185949;stroke:#000000;stroke-width:0.264583;stroke-opacity:0.424756"
           d="m 332.31023,288.20329 c 2.05965,-23.68023 13.46117,-70.19407 -5.36916,-86.33233 -19.78483,-15.15434 -31.84435,6.49596 -31.84435,6.49596 0,0 15.99568,-22.37079 66.49297,-47.18991 50.49729,-24.81912 36.99562,126.51668 36.99562,126.51668 0,0 -9.85664,-2.21116 -11.13827,-4.16751 -1.28163,-1.95635 -8.70169,1.00652 -13.24887,5.41455 -4.69675,0.18347 -24.55697,2.77626 -41.88794,-0.73744 z"
           id="path934"
           sodipodi:nodetypes="cccscscc" />
        <path
           style="fill:#000000;fill-opacity:0.185949;stroke:#000000;stroke-width:0.264583;stroke-opacity:0.424756"
           d="m 454.46368,355.50662 c -2.05965,-23.68023 -13.46117,-70.19407 5.36916,-86.33233 19.78483,-15.15434 31.84435,6.49596 31.84435,6.49596 0,0 -15.99568,-22.37079 -66.49297,-47.18991 -50.49729,-24.81912 -36.99562,126.51668 -36.99562,126.51668 0,0 9.85664,-2.21116 11.13827,-4.16751 1.28163,-1.95635 8.70169,1.00652 13.24887,5.41455 4.69675,0.18347 24.55697,2.77626 41.88794,-0.73744 z"
           id="path947"
           sodipodi:nodetypes="cccscscc" />
      </g>
      <path
         style="fill:#000000;fill-opacity:0.185949;stroke:#000000;stroke-width:0.264583;stroke-opacity:0.424756"
         d="m 351.9271,429.26378 2.62407,-9.05486 8.54594,-5.49268 10.49134,1.52469 9.37907,-5.63872 3.00125,-7.64195 7.73897,-4.72386 9.46497,1.55626 12.65062,-8.26707 2.77247,-7.47526 6.68703,-3.85943 9.59923,0.47524 10.48204,-6.55775 2.83932,-6.60014 9.85065,-5.44663 10.94187,-1.26687"
         id="path956"
         sodipodi:nodetypes="cccccccccccccccc" />
      <path
         style="fill:#000000;fill-opacity:0.185949;stroke:#000000;stroke-width:0.177994;stroke-opacity:0.424756"
         d="m 320.03863,431.3547 1.52683,-7.04296 4.97251,-4.27226 6.10444,1.18592 5.45727,-4.38586 1.74629,-5.94398 4.50297,-3.67425 5.50724,1.21046 7.36084,-6.4302 1.61318,-5.81433 3.89088,-3.0019 5.58537,0.36964 6.09904,-5.10067 1.65207,-5.13366 5.73165,-4.23644 6.36659,-0.98538"
         id="path958"
         sodipodi:nodetypes="cccccccccccccccc" />
    </g>
  </g>
</svg>
